<svg xmlns="http://www.w3.org/2000/svg" xmlns:xlink="http://www.w3.org/1999/xlink" width="1280" zoomAndPan="magnify" viewBox="0 0 960 599.999999" height="800" preserveAspectRatio="xMidYMid meet" version="1.0"><defs><g/><clipPath id="57da5a5957"><path d="M 104 179.074219 L 121 179.074219 L 121 195 L 104 195 Z M 104 179.074219 " clip-rule="nonzero"/></clipPath><clipPath id="97cac00c74"><path d="M 215 179.074219 L 232 179.074219 L 232 195 L 215 195 Z M 215 179.074219 " clip-rule="nonzero"/></clipPath><clipPath id="c0bc428a27"><path d="M 61.5 333 L 78 333 L 78 350 L 61.5 350 Z M 61.5 333 " clip-rule="nonzero"/></clipPath><clipPath id="7cd7682b2c"><path d="M 61.5 222 L 78 222 L 78 238 L 61.5 238 Z M 61.5 222 " clip-rule="nonzero"/></clipPath><clipPath id="87d6c614a2"><path d="M 215.328125 376.277344 L 231.523438 376.277344 L 231.523438 392.074219 L 215.328125 392.074219 Z M 215.328125 376.277344 " clip-rule="nonzero"/></clipPath><clipPath id="afde8b2b1d"><path d="M 104.292969 376.277344 L 120.488281 376.277344 L 120.488281 392.074219 L 104.292969 392.074219 Z M 104.292969 376.277344 " clip-rule="nonzero"/></clipPath><clipPath id="c71539caa6"><path d="M 259 222 L 274.5 222 L 274.5 238 L 259 238 Z M 259 222 " clip-rule="nonzero"/></clipPath><clipPath id="b1b5538599"><path d="M 259 333 L 274.5 333 L 274.5 349.097656 L 259 349.097656 Z M 259 333 " clip-rule="nonzero"/></clipPath></defs><path fill="#ffffff" d="M 217.492188 347.082031 L 118.695312 347.082031 C 112.078125 347.082031 106.695312 341.695312 106.695312 335.082031 L 106.695312 236.277344 C 106.695312 229.660156 112.078125 224.277344 118.695312 224.277344 L 217.5 224.277344 C 224.113281 224.277344 229.5 229.660156 229.5 236.277344 L 229.5 335.082031 C 229.5 341.695312 224.113281 347.082031 217.492188 347.082031 Z M 118.695312 228.710938 C 114.527344 228.710938 111.136719 232.101562 111.136719 236.269531 L 111.136719 335.074219 C 111.136719 339.242188 114.527344 342.632812 118.695312 342.632812 L 217.5 342.632812 C 221.667969 342.632812 225.058594 339.242188 225.058594 335.074219 L 225.058594 236.277344 C 225.058594 232.105469 221.667969 228.71875 217.5 228.71875 L 118.695312 228.71875 L 118.695312 228.710938 " fill-opacity="1" fill-rule="evenodd"/><path fill="#ffffff" d="M 200.59375 326.832031 L 135.59375 326.832031 C 130.824219 326.832031 126.933594 322.953125 126.933594 318.175781 L 126.933594 253.171875 C 126.933594 248.402344 130.816406 244.515625 135.59375 244.515625 L 200.59375 244.515625 C 205.363281 244.515625 209.25 248.398438 209.25 253.171875 L 209.25 318.175781 C 209.25 322.949219 205.363281 326.832031 200.59375 326.832031 Z M 135.59375 248.957031 C 133.269531 248.957031 131.375 250.847656 131.375 253.171875 L 131.375 318.175781 C 131.375 320.5 133.269531 322.390625 135.59375 322.390625 L 200.59375 322.390625 C 202.917969 322.390625 204.808594 320.5 204.808594 318.175781 L 204.808594 253.171875 C 204.808594 250.847656 202.917969 248.957031 200.59375 248.957031 L 135.59375 248.957031 " fill-opacity="1" fill-rule="evenodd"/><path fill="#ffffff" d="M 128.828125 228.710938 C 127.601562 228.710938 126.605469 227.714844 126.605469 226.488281 L 126.605469 213.757812 L 112.542969 213.757812 C 111.316406 213.757812 110.320312 212.761719 110.320312 211.535156 L 110.320312 192.492188 C 110.320312 191.265625 111.316406 190.269531 112.542969 190.269531 C 113.765625 190.269531 114.761719 191.265625 114.761719 192.492188 L 114.761719 209.316406 L 128.828125 209.316406 C 130.050781 209.316406 131.046875 210.3125 131.046875 211.539062 L 131.046875 226.496094 C 131.046875 227.722656 130.050781 228.710938 128.828125 228.710938 " fill-opacity="1" fill-rule="evenodd"/><path fill="#ffffff" d="M 207.359375 228.710938 C 206.136719 228.710938 205.140625 227.714844 205.140625 226.488281 L 205.140625 211.53125 C 205.140625 210.304688 206.136719 209.308594 207.359375 209.308594 L 221.425781 209.308594 L 221.425781 192.492188 C 221.425781 191.265625 222.421875 190.269531 223.644531 190.269531 C 224.871094 190.269531 225.867188 191.265625 225.867188 192.492188 L 225.867188 211.539062 C 225.867188 212.761719 224.871094 213.757812 223.644531 213.757812 L 209.582031 213.757812 L 209.582031 226.496094 C 209.582031 227.722656 208.585938 228.710938 207.359375 228.710938 " fill-opacity="1" fill-rule="evenodd"/><path fill="#ffffff" d="M 143.03125 228.710938 C 141.804688 228.710938 140.808594 227.714844 140.808594 226.488281 L 140.808594 208.785156 C 140.808594 207.558594 141.804688 206.5625 143.03125 206.5625 C 144.257812 206.5625 145.25 207.558594 145.25 208.785156 L 145.25 226.496094 C 145.25 227.722656 144.257812 228.710938 143.03125 228.710938 " fill-opacity="1" fill-rule="evenodd"/><path fill="#ffffff" d="M 159.738281 228.710938 C 158.511719 228.710938 157.515625 227.714844 157.515625 226.488281 L 157.515625 194.261719 C 157.515625 193.035156 158.511719 192.042969 159.738281 192.042969 C 160.960938 192.042969 161.957031 193.035156 161.957031 194.261719 L 161.957031 226.492188 C 161.957031 227.722656 160.960938 228.710938 159.738281 228.710938 " fill-opacity="1" fill-rule="evenodd"/><path fill="#ffffff" d="M 176.449219 228.710938 C 175.222656 228.710938 174.230469 227.714844 174.230469 226.488281 L 174.230469 194.261719 C 174.230469 193.035156 175.222656 192.042969 176.449219 192.042969 C 177.675781 192.042969 178.671875 193.035156 178.671875 194.261719 L 178.671875 226.492188 C 178.671875 227.722656 177.675781 228.710938 176.449219 228.710938 " fill-opacity="1" fill-rule="evenodd"/><path fill="#ffffff" d="M 193.15625 228.710938 C 191.929688 228.710938 190.9375 227.714844 190.9375 226.488281 L 190.9375 208.785156 C 190.9375 207.558594 191.929688 206.5625 193.15625 206.5625 C 194.382812 206.5625 195.378906 207.558594 195.378906 208.785156 L 195.378906 226.496094 C 195.378906 227.722656 194.382812 228.710938 193.15625 228.710938 " fill-opacity="1" fill-rule="evenodd"/><g clip-path="url(#57da5a5957)"><path fill="#ffffff" d="M 112.542969 194.710938 C 108.230469 194.710938 104.722656 191.207031 104.722656 186.894531 C 104.722656 182.585938 108.226562 179.074219 112.542969 179.074219 C 116.851562 179.074219 120.359375 182.578125 120.359375 186.894531 C 120.359375 191.207031 116.851562 194.710938 112.542969 194.710938 Z M 112.542969 183.523438 C 110.679688 183.523438 109.164062 185.039062 109.164062 186.902344 C 109.164062 188.761719 110.679688 190.277344 112.542969 190.277344 C 114.402344 190.277344 115.917969 188.761719 115.917969 186.902344 C 115.917969 185.039062 114.402344 183.523438 112.542969 183.523438 " fill-opacity="1" fill-rule="evenodd"/></g><path fill="#ffffff" d="M 143.03125 211.003906 C 138.722656 211.003906 135.210938 207.5 135.210938 203.1875 C 135.210938 198.878906 138.714844 195.367188 143.03125 195.367188 C 147.34375 195.367188 150.847656 198.871094 150.847656 203.1875 C 150.847656 207.492188 147.339844 211.003906 143.03125 211.003906 Z M 143.03125 199.808594 C 141.167969 199.808594 139.652344 201.324219 139.652344 203.1875 C 139.652344 205.046875 141.167969 206.5625 143.03125 206.5625 C 144.890625 206.5625 146.40625 205.046875 146.40625 203.1875 C 146.40625 201.324219 144.890625 199.808594 143.03125 199.808594 " fill-opacity="1" fill-rule="evenodd"/><path fill="#ffffff" d="M 159.738281 196.484375 C 155.429688 196.484375 151.917969 192.976562 151.917969 188.664062 C 151.917969 184.351562 155.421875 180.84375 159.738281 180.84375 C 164.046875 180.84375 167.554688 184.351562 167.554688 188.664062 C 167.554688 192.976562 164.050781 196.484375 159.738281 196.484375 Z M 159.738281 185.292969 C 157.875 185.292969 156.359375 186.808594 156.359375 188.667969 C 156.359375 190.53125 157.875 192.046875 159.738281 192.046875 C 161.597656 192.046875 163.113281 190.53125 163.113281 188.667969 C 163.113281 186.808594 161.597656 185.292969 159.738281 185.292969 " fill-opacity="1" fill-rule="evenodd"/><path fill="#ffffff" d="M 176.449219 196.484375 C 172.140625 196.484375 168.632812 192.976562 168.632812 188.664062 C 168.632812 184.351562 172.136719 180.84375 176.449219 180.84375 C 180.757812 180.84375 184.269531 184.351562 184.269531 188.664062 C 184.269531 192.976562 180.757812 196.484375 176.449219 196.484375 Z M 176.449219 185.292969 C 174.589844 185.292969 173.074219 186.808594 173.074219 188.667969 C 173.074219 190.53125 174.589844 192.046875 176.449219 192.046875 C 178.3125 192.046875 179.828125 190.53125 179.828125 188.667969 C 179.828125 186.808594 178.308594 185.292969 176.449219 185.292969 " fill-opacity="1" fill-rule="evenodd"/><path fill="#ffffff" d="M 193.15625 211.003906 C 188.847656 211.003906 185.339844 207.5 185.339844 203.1875 C 185.339844 198.878906 188.84375 195.367188 193.15625 195.367188 C 197.464844 195.367188 200.976562 198.871094 200.976562 203.1875 C 200.976562 207.492188 197.464844 211.003906 193.15625 211.003906 Z M 193.15625 199.808594 C 191.292969 199.808594 189.78125 201.324219 189.78125 203.1875 C 189.78125 205.046875 191.292969 206.5625 193.15625 206.5625 C 195.019531 206.5625 196.535156 205.046875 196.535156 203.1875 C 196.535156 201.324219 195.019531 199.808594 193.15625 199.808594 " fill-opacity="1" fill-rule="evenodd"/><g clip-path="url(#97cac00c74)"><path fill="#ffffff" d="M 223.644531 194.710938 C 219.335938 194.710938 215.828125 191.207031 215.828125 186.894531 C 215.828125 182.585938 219.332031 179.074219 223.644531 179.074219 C 227.960938 179.074219 231.464844 182.578125 231.464844 186.894531 C 231.464844 191.207031 227.953125 194.710938 223.644531 194.710938 Z M 223.644531 183.523438 C 221.785156 183.523438 220.269531 185.039062 220.269531 186.902344 C 220.269531 188.761719 221.785156 190.277344 223.644531 190.277344 C 225.507812 190.277344 227.023438 188.761719 227.023438 186.902344 C 227.023438 185.039062 225.507812 183.523438 223.644531 183.523438 " fill-opacity="1" fill-rule="evenodd"/></g><path fill="#ffffff" d="M 93.957031 343.449219 L 74.910156 343.449219 C 73.683594 343.449219 72.691406 342.453125 72.691406 341.226562 C 72.691406 340 73.683594 339.007812 74.910156 339.007812 L 91.734375 339.007812 L 91.734375 324.941406 C 91.734375 323.714844 92.730469 322.722656 93.957031 322.722656 L 108.914062 322.722656 C 110.140625 322.722656 111.136719 323.714844 111.136719 324.941406 C 111.136719 326.167969 110.140625 327.164062 108.914062 327.164062 L 96.175781 327.164062 L 96.175781 341.226562 C 96.175781 342.453125 95.179688 343.449219 93.957031 343.449219 " fill-opacity="1" fill-rule="evenodd"/><path fill="#ffffff" d="M 108.910156 248.628906 L 93.949219 248.628906 C 92.722656 248.628906 91.726562 247.632812 91.726562 246.40625 L 91.726562 232.34375 L 74.910156 232.34375 C 73.683594 232.34375 72.691406 231.347656 72.691406 230.121094 C 72.691406 228.894531 73.683594 227.902344 74.910156 227.902344 L 93.957031 227.902344 C 95.179688 227.902344 96.175781 228.894531 96.175781 230.121094 L 96.175781 244.1875 L 108.914062 244.1875 C 110.140625 244.1875 111.136719 245.183594 111.136719 246.40625 C 111.136719 247.632812 110.140625 248.628906 108.910156 248.628906 " fill-opacity="1" fill-rule="evenodd"/><path fill="#ffffff" d="M 108.910156 312.960938 L 91.203125 312.960938 C 89.976562 312.960938 88.980469 311.964844 88.980469 310.738281 C 88.980469 309.511719 89.976562 308.515625 91.203125 308.515625 L 108.914062 308.515625 C 110.140625 308.515625 111.136719 309.511719 111.136719 310.738281 C 111.136719 311.964844 110.140625 312.960938 108.910156 312.960938 " fill-opacity="1" fill-rule="evenodd"/><path fill="#ffffff" d="M 108.910156 296.253906 L 76.679688 296.253906 C 75.453125 296.253906 74.460938 295.257812 74.460938 294.03125 C 74.460938 292.804688 75.453125 291.8125 76.679688 291.8125 L 108.910156 291.8125 C 110.136719 291.8125 111.128906 292.804688 111.128906 294.03125 C 111.128906 295.257812 110.140625 296.253906 108.910156 296.253906 " fill-opacity="1" fill-rule="evenodd"/><path fill="#ffffff" d="M 108.910156 279.539062 L 76.679688 279.539062 C 75.453125 279.539062 74.460938 278.542969 74.460938 277.316406 C 74.460938 276.09375 75.453125 275.097656 76.679688 275.097656 L 108.910156 275.097656 C 110.136719 275.097656 111.128906 276.09375 111.128906 277.316406 C 111.128906 278.542969 110.140625 279.539062 108.910156 279.539062 " fill-opacity="1" fill-rule="evenodd"/><path fill="#ffffff" d="M 108.910156 262.832031 L 91.203125 262.832031 C 89.976562 262.832031 88.980469 261.835938 88.980469 260.609375 C 88.980469 259.386719 89.976562 258.390625 91.203125 258.390625 L 108.914062 258.390625 C 110.140625 258.390625 111.136719 259.386719 111.136719 260.613281 C 111.136719 261.835938 110.140625 262.832031 108.910156 262.832031 " fill-opacity="1" fill-rule="evenodd"/><g clip-path="url(#c0bc428a27)"><path fill="#ffffff" d="M 69.320312 349.046875 C 65.011719 349.046875 61.5 345.542969 61.5 341.226562 C 61.5 336.917969 65.003906 333.410156 69.320312 333.410156 C 73.625 333.410156 77.136719 336.914062 77.136719 341.226562 C 77.132812 345.535156 73.625 349.046875 69.320312 349.046875 Z M 69.320312 337.851562 C 67.457031 337.851562 65.941406 339.367188 65.941406 341.226562 C 65.941406 343.089844 67.457031 344.605469 69.320312 344.605469 C 71.179688 344.605469 72.695312 343.089844 72.695312 341.226562 C 72.691406 339.367188 71.179688 337.851562 69.320312 337.851562 " fill-opacity="1" fill-rule="evenodd"/></g><path fill="#ffffff" d="M 85.605469 318.558594 C 81.296875 318.558594 77.785156 315.050781 77.785156 310.738281 C 77.785156 306.429688 81.289062 302.917969 85.605469 302.917969 C 89.910156 302.917969 93.421875 306.425781 93.421875 310.738281 C 93.421875 315.046875 89.910156 318.558594 85.605469 318.558594 Z M 85.605469 307.359375 C 83.742188 307.359375 82.226562 308.875 82.226562 310.738281 C 82.226562 312.601562 83.742188 314.117188 85.605469 314.117188 C 87.464844 314.117188 88.980469 312.601562 88.980469 310.738281 C 88.980469 308.875 87.46875 307.359375 85.605469 307.359375 " fill-opacity="1" fill-rule="evenodd"/><path fill="#ffffff" d="M 71.089844 301.84375 C 66.78125 301.84375 63.269531 298.339844 63.269531 294.023438 C 63.269531 289.71875 66.773438 286.207031 71.089844 286.207031 C 75.402344 286.207031 78.90625 289.710938 78.90625 294.023438 C 78.902344 298.339844 75.398438 301.84375 71.089844 301.84375 Z M 71.089844 290.65625 C 69.226562 290.65625 67.710938 292.167969 67.710938 294.03125 C 67.710938 295.894531 69.226562 297.410156 71.089844 297.410156 C 72.949219 297.410156 74.464844 295.894531 74.464844 294.03125 C 74.460938 292.167969 72.945312 290.65625 71.089844 290.65625 " fill-opacity="1" fill-rule="evenodd"/><path fill="#ffffff" d="M 71.089844 285.136719 C 66.78125 285.136719 63.269531 281.632812 63.269531 277.316406 C 63.269531 273.007812 66.773438 269.5 71.089844 269.5 C 75.402344 269.5 78.90625 273.003906 78.90625 277.316406 C 78.902344 281.632812 75.398438 285.136719 71.089844 285.136719 Z M 71.089844 273.945312 C 69.226562 273.945312 67.710938 275.464844 67.710938 277.324219 C 67.710938 279.1875 69.226562 280.703125 71.089844 280.703125 C 72.949219 280.703125 74.464844 279.1875 74.464844 277.324219 C 74.464844 275.464844 72.945312 273.945312 71.089844 273.945312 " fill-opacity="1" fill-rule="evenodd"/><path fill="#ffffff" d="M 85.605469 268.429688 C 81.296875 268.429688 77.785156 264.925781 77.785156 260.609375 C 77.785156 256.296875 81.289062 252.792969 85.605469 252.792969 C 89.910156 252.792969 93.421875 256.296875 93.421875 260.609375 C 93.421875 264.925781 89.910156 268.429688 85.605469 268.429688 Z M 85.605469 257.234375 C 83.742188 257.234375 82.226562 258.75 82.226562 260.609375 C 82.226562 262.472656 83.742188 263.988281 85.605469 263.988281 C 87.464844 263.988281 88.980469 262.472656 88.980469 260.609375 C 88.980469 258.75 87.46875 257.234375 85.605469 257.234375 " fill-opacity="1" fill-rule="evenodd"/><g clip-path="url(#7cd7682b2c)"><path fill="#ffffff" d="M 69.320312 237.941406 C 65.011719 237.941406 61.5 234.4375 61.5 230.121094 C 61.5 225.808594 65.003906 222.304688 69.320312 222.304688 C 73.625 222.304688 77.136719 225.808594 77.136719 230.121094 C 77.136719 234.4375 73.625 237.941406 69.320312 237.941406 Z M 69.320312 226.746094 C 67.457031 226.746094 65.941406 228.261719 65.941406 230.121094 C 65.941406 231.984375 67.457031 233.5 69.320312 233.5 C 71.179688 233.5 72.695312 231.984375 72.695312 230.121094 C 72.695312 228.261719 71.179688 226.746094 69.320312 226.746094 " fill-opacity="1" fill-rule="evenodd"/></g><path fill="#ffffff" d="M 223.644531 381.078125 C 222.421875 381.078125 221.425781 380.082031 221.425781 378.859375 L 221.425781 362.035156 L 207.359375 362.035156 C 206.136719 362.035156 205.140625 361.039062 205.140625 359.8125 L 205.140625 344.859375 C 205.140625 343.632812 206.136719 342.640625 207.359375 342.640625 C 208.585938 342.640625 209.582031 343.632812 209.582031 344.859375 L 209.582031 357.597656 L 223.644531 357.597656 C 224.871094 357.597656 225.867188 358.59375 225.867188 359.820312 L 225.867188 378.863281 C 225.867188 380.082031 224.871094 381.078125 223.644531 381.078125 " fill-opacity="1" fill-rule="evenodd"/><path fill="#ffffff" d="M 112.542969 381.078125 C 111.316406 381.078125 110.320312 380.082031 110.320312 378.859375 L 110.320312 359.8125 C 110.320312 358.585938 111.316406 357.59375 112.542969 357.59375 L 126.605469 357.59375 L 126.605469 344.859375 C 126.605469 343.632812 127.601562 342.640625 128.828125 342.640625 C 130.050781 342.640625 131.046875 343.632812 131.046875 344.859375 L 131.046875 359.820312 C 131.046875 361.046875 130.050781 362.039062 128.828125 362.039062 L 114.761719 362.039062 L 114.761719 378.863281 C 114.761719 380.082031 113.765625 381.078125 112.542969 381.078125 " fill-opacity="1" fill-rule="evenodd"/><path fill="#ffffff" d="M 193.15625 364.785156 C 191.929688 364.785156 190.9375 363.792969 190.9375 362.566406 L 190.9375 344.859375 C 190.9375 343.632812 191.929688 342.640625 193.15625 342.640625 C 194.382812 342.640625 195.378906 343.632812 195.378906 344.859375 L 195.378906 362.574219 C 195.378906 363.792969 194.382812 364.785156 193.15625 364.785156 " fill-opacity="1" fill-rule="evenodd"/><path fill="#ffffff" d="M 176.449219 379.308594 C 175.222656 379.308594 174.230469 378.3125 174.230469 377.085938 L 174.230469 344.859375 C 174.230469 343.632812 175.222656 342.640625 176.449219 342.640625 C 177.675781 342.640625 178.671875 343.632812 178.671875 344.859375 L 178.671875 377.085938 C 178.671875 378.3125 177.675781 379.308594 176.449219 379.308594 " fill-opacity="1" fill-rule="evenodd"/><path fill="#ffffff" d="M 159.738281 379.308594 C 158.511719 379.308594 157.515625 378.3125 157.515625 377.085938 L 157.515625 344.859375 C 157.515625 343.632812 158.511719 342.640625 159.738281 342.640625 C 160.960938 342.640625 161.957031 343.632812 161.957031 344.859375 L 161.957031 377.085938 C 161.957031 378.3125 160.960938 379.308594 159.738281 379.308594 " fill-opacity="1" fill-rule="evenodd"/><path fill="#ffffff" d="M 143.03125 364.785156 C 141.804688 364.785156 140.808594 363.792969 140.808594 362.566406 L 140.808594 344.859375 C 140.808594 343.632812 141.804688 342.640625 143.03125 342.640625 C 144.257812 342.640625 145.25 343.632812 145.25 344.859375 L 145.25 362.574219 C 145.25 363.792969 144.257812 364.785156 143.03125 364.785156 " fill-opacity="1" fill-rule="evenodd"/><g clip-path="url(#87d6c614a2)"><path fill="#ffffff" d="M 223.644531 392.265625 C 219.335938 392.265625 215.828125 388.765625 215.828125 384.449219 C 215.828125 380.132812 219.332031 376.628906 223.644531 376.628906 C 227.953125 376.628906 231.464844 380.132812 231.464844 384.449219 C 231.464844 388.765625 227.953125 392.265625 223.644531 392.265625 Z M 223.644531 381.078125 C 221.785156 381.078125 220.269531 382.59375 220.269531 384.457031 C 220.269531 386.316406 221.785156 387.832031 223.644531 387.832031 C 225.507812 387.832031 227.023438 386.316406 227.023438 384.457031 C 227.023438 382.59375 225.507812 381.078125 223.644531 381.078125 " fill-opacity="1" fill-rule="evenodd"/></g><path fill="#ffffff" d="M 193.15625 375.980469 C 188.847656 375.980469 185.339844 372.476562 185.339844 368.164062 C 185.339844 363.847656 188.84375 360.34375 193.15625 360.34375 C 197.464844 360.34375 200.976562 363.847656 200.976562 368.164062 C 200.976562 372.476562 197.464844 375.980469 193.15625 375.980469 Z M 193.15625 364.785156 C 191.292969 364.785156 189.78125 366.300781 189.78125 368.164062 C 189.78125 370.027344 191.292969 371.539062 193.15625 371.539062 C 195.019531 371.539062 196.535156 370.027344 196.535156 368.164062 C 196.535156 366.300781 195.019531 364.785156 193.15625 364.785156 " fill-opacity="1" fill-rule="evenodd"/><path fill="#ffffff" d="M 176.449219 390.5 C 172.140625 390.5 168.632812 386.996094 168.632812 382.679688 C 168.632812 378.367188 172.136719 374.863281 176.449219 374.863281 C 180.757812 374.863281 184.269531 378.367188 184.269531 382.679688 C 184.269531 386.996094 180.757812 390.5 176.449219 390.5 Z M 176.449219 379.308594 C 174.589844 379.308594 173.074219 380.824219 173.074219 382.683594 C 173.074219 384.546875 174.589844 386.0625 176.449219 386.0625 C 178.3125 386.0625 179.828125 384.546875 179.828125 382.683594 C 179.828125 380.824219 178.308594 379.308594 176.449219 379.308594 " fill-opacity="1" fill-rule="evenodd"/><path fill="#ffffff" d="M 159.738281 390.5 C 155.429688 390.5 151.917969 386.996094 151.917969 382.679688 C 151.917969 378.367188 155.421875 374.863281 159.738281 374.863281 C 164.046875 374.863281 167.554688 378.367188 167.554688 382.679688 C 167.554688 386.996094 164.050781 390.5 159.738281 390.5 Z M 159.738281 379.308594 C 157.875 379.308594 156.359375 380.824219 156.359375 382.683594 C 156.359375 384.546875 157.875 386.0625 159.738281 386.0625 C 161.597656 386.0625 163.113281 384.546875 163.113281 382.683594 C 163.113281 380.824219 161.597656 379.308594 159.738281 379.308594 " fill-opacity="1" fill-rule="evenodd"/><path fill="#ffffff" d="M 143.03125 375.980469 C 138.722656 375.980469 135.210938 372.476562 135.210938 368.164062 C 135.210938 363.847656 138.714844 360.34375 143.03125 360.34375 C 147.34375 360.34375 150.847656 363.847656 150.847656 368.164062 C 150.847656 372.476562 147.339844 375.980469 143.03125 375.980469 Z M 143.03125 364.785156 C 141.167969 364.785156 139.652344 366.300781 139.652344 368.164062 C 139.652344 370.027344 141.167969 371.539062 143.03125 371.539062 C 144.890625 371.539062 146.40625 370.027344 146.40625 368.164062 C 146.40625 366.300781 144.890625 364.785156 143.03125 364.785156 " fill-opacity="1" fill-rule="evenodd"/><g clip-path="url(#afde8b2b1d)"><path fill="#ffffff" d="M 112.542969 392.265625 C 108.230469 392.265625 104.722656 388.765625 104.722656 384.449219 C 104.722656 380.132812 108.226562 376.628906 112.542969 376.628906 C 116.855469 376.628906 120.359375 380.132812 120.359375 384.449219 C 120.359375 388.765625 116.851562 392.265625 112.542969 392.265625 Z M 112.542969 381.078125 C 110.679688 381.078125 109.164062 382.59375 109.164062 384.457031 C 109.164062 386.316406 110.679688 387.832031 112.542969 387.832031 C 114.402344 387.832031 115.917969 386.316406 115.917969 384.457031 C 115.917969 382.59375 114.402344 381.078125 112.542969 381.078125 " fill-opacity="1" fill-rule="evenodd"/></g><path fill="#ffffff" d="M 242.230469 248.628906 L 227.277344 248.628906 C 226.050781 248.628906 225.058594 247.632812 225.058594 246.40625 C 225.058594 245.183594 226.050781 244.1875 227.277344 244.1875 L 240.015625 244.1875 L 240.015625 230.121094 C 240.015625 228.894531 241.011719 227.902344 242.238281 227.902344 L 261.28125 227.902344 C 262.507812 227.902344 263.503906 228.894531 263.503906 230.121094 C 263.503906 231.347656 262.507812 232.34375 261.28125 232.34375 L 244.453125 232.34375 L 244.453125 246.40625 C 244.453125 247.632812 243.457031 248.628906 242.230469 248.628906 " fill-opacity="1" fill-rule="evenodd"/><path fill="#ffffff" d="M 261.277344 343.449219 L 242.230469 343.449219 C 241.003906 343.449219 240.011719 342.453125 240.011719 341.226562 L 240.011719 327.164062 L 227.277344 327.164062 C 226.050781 327.164062 225.058594 326.167969 225.058594 324.941406 C 225.058594 323.714844 226.050781 322.722656 227.277344 322.722656 L 242.238281 322.722656 C 243.464844 322.722656 244.460938 323.714844 244.460938 324.941406 L 244.460938 339.007812 L 261.28125 339.007812 C 262.507812 339.007812 263.503906 340 263.503906 341.226562 C 263.503906 342.453125 262.503906 343.449219 261.277344 343.449219 " fill-opacity="1" fill-rule="evenodd"/><path fill="#ffffff" d="M 244.984375 262.832031 L 227.277344 262.832031 C 226.050781 262.832031 225.058594 261.835938 225.058594 260.609375 C 225.058594 259.386719 226.050781 258.390625 227.277344 258.390625 L 244.992188 258.390625 C 246.21875 258.390625 247.210938 259.386719 247.210938 260.613281 C 247.210938 261.835938 246.210938 262.832031 244.984375 262.832031 " fill-opacity="1" fill-rule="evenodd"/><path fill="#ffffff" d="M 259.507812 279.539062 L 227.277344 279.539062 C 226.050781 279.539062 225.058594 278.542969 225.058594 277.316406 C 225.058594 276.09375 226.050781 275.097656 227.277344 275.097656 L 259.507812 275.097656 C 260.734375 275.097656 261.726562 276.09375 261.726562 277.316406 C 261.726562 278.542969 260.734375 279.539062 259.507812 279.539062 " fill-opacity="1" fill-rule="evenodd"/><path fill="#ffffff" d="M 259.507812 296.253906 L 227.277344 296.253906 C 226.050781 296.253906 225.058594 295.257812 225.058594 294.03125 C 225.058594 292.804688 226.050781 291.8125 227.277344 291.8125 L 259.507812 291.8125 C 260.734375 291.8125 261.726562 292.804688 261.726562 294.03125 C 261.726562 295.257812 260.734375 296.253906 259.507812 296.253906 " fill-opacity="1" fill-rule="evenodd"/><path fill="#ffffff" d="M 244.984375 312.960938 L 227.277344 312.960938 C 226.050781 312.960938 225.058594 311.964844 225.058594 310.738281 C 225.058594 309.511719 226.050781 308.515625 227.277344 308.515625 L 244.992188 308.515625 C 246.21875 308.515625 247.210938 309.511719 247.210938 310.738281 C 247.210938 311.964844 246.210938 312.960938 244.984375 312.960938 " fill-opacity="1" fill-rule="evenodd"/><g clip-path="url(#c71539caa6)"><path fill="#ffffff" d="M 266.867188 237.941406 C 262.5625 237.941406 259.050781 234.4375 259.050781 230.121094 C 259.050781 225.8125 262.554688 222.304688 266.867188 222.304688 C 271.179688 222.304688 274.6875 225.808594 274.6875 230.121094 C 274.6875 234.433594 271.179688 237.941406 266.867188 237.941406 Z M 266.867188 226.746094 C 265.003906 226.746094 263.488281 228.261719 263.488281 230.121094 C 263.488281 231.984375 265.003906 233.5 266.867188 233.5 C 268.730469 233.5 270.246094 231.984375 270.246094 230.121094 C 270.246094 228.261719 268.730469 226.746094 266.867188 226.746094 " fill-opacity="1" fill-rule="evenodd"/></g><path fill="#ffffff" d="M 250.582031 268.429688 C 246.277344 268.429688 242.761719 264.925781 242.761719 260.609375 C 242.761719 256.296875 246.269531 252.792969 250.582031 252.792969 C 254.898438 252.792969 258.402344 256.296875 258.402344 260.609375 C 258.402344 264.925781 254.890625 268.429688 250.582031 268.429688 Z M 250.582031 257.234375 C 248.71875 257.234375 247.207031 258.75 247.207031 260.609375 C 247.207031 262.472656 248.71875 263.988281 250.582031 263.988281 C 252.445312 263.988281 253.960938 262.472656 253.960938 260.609375 C 253.960938 258.75 252.445312 257.234375 250.582031 257.234375 " fill-opacity="1" fill-rule="evenodd"/><path fill="#ffffff" d="M 265.097656 285.136719 C 260.789062 285.136719 257.28125 281.632812 257.28125 277.316406 C 257.28125 273.007812 260.785156 269.5 265.097656 269.5 C 269.414062 269.5 272.917969 273.003906 272.917969 277.316406 C 272.917969 281.632812 269.414062 285.136719 265.097656 285.136719 Z M 265.097656 273.945312 C 263.238281 273.945312 261.722656 275.464844 261.722656 277.324219 C 261.722656 279.1875 263.238281 280.703125 265.097656 280.703125 C 266.960938 280.703125 268.476562 279.1875 268.476562 277.324219 C 268.476562 275.464844 266.960938 273.945312 265.097656 273.945312 " fill-opacity="1" fill-rule="evenodd"/><path fill="#ffffff" d="M 265.097656 301.84375 C 260.789062 301.84375 257.28125 298.339844 257.28125 294.023438 C 257.28125 289.71875 260.785156 286.207031 265.097656 286.207031 C 269.414062 286.207031 272.917969 289.710938 272.917969 294.023438 C 272.917969 298.339844 269.414062 301.84375 265.097656 301.84375 Z M 265.097656 290.65625 C 263.238281 290.65625 261.722656 292.167969 261.722656 294.03125 C 261.722656 295.894531 263.238281 297.410156 265.097656 297.410156 C 266.960938 297.410156 268.476562 295.894531 268.476562 294.03125 C 268.476562 292.167969 266.960938 290.65625 265.097656 290.65625 " fill-opacity="1" fill-rule="evenodd"/><path fill="#ffffff" d="M 250.582031 318.558594 C 246.277344 318.558594 242.761719 315.050781 242.761719 310.738281 C 242.761719 306.429688 246.269531 302.917969 250.582031 302.917969 C 254.898438 302.917969 258.402344 306.425781 258.402344 310.738281 C 258.402344 315.046875 254.890625 318.558594 250.582031 318.558594 Z M 250.582031 307.359375 C 248.71875 307.359375 247.207031 308.875 247.207031 310.738281 C 247.207031 312.601562 248.71875 314.117188 250.582031 314.117188 C 252.445312 314.117188 253.960938 312.601562 253.960938 310.738281 C 253.960938 308.875 252.445312 307.359375 250.582031 307.359375 " fill-opacity="1" fill-rule="evenodd"/><g clip-path="url(#b1b5538599)"><path fill="#ffffff" d="M 266.867188 349.046875 C 262.5625 349.046875 259.050781 345.542969 259.050781 341.226562 C 259.050781 336.914062 262.554688 333.410156 266.867188 333.410156 C 271.179688 333.410156 274.6875 336.914062 274.6875 341.226562 C 274.6875 345.542969 271.179688 349.046875 266.867188 349.046875 Z M 266.867188 337.851562 C 265.003906 337.851562 263.488281 339.367188 263.488281 341.226562 C 263.488281 343.089844 265.003906 344.605469 266.867188 344.605469 C 268.730469 344.605469 270.246094 343.089844 270.246094 341.226562 C 270.246094 339.367188 268.730469 337.851562 266.867188 337.851562 " fill-opacity="1" fill-rule="evenodd"/></g><path fill="#ffffff" d="M 163.160156 306.5 L 144.117188 306.5 C 142.890625 306.5 141.894531 305.503906 141.894531 304.277344 L 141.894531 290.210938 L 129.15625 290.210938 C 127.929688 290.210938 126.933594 289.214844 126.933594 287.988281 C 126.933594 286.761719 127.929688 285.765625 129.15625 285.765625 L 144.117188 285.765625 C 145.34375 285.765625 146.335938 286.761719 146.335938 287.988281 L 146.335938 302.050781 L 163.160156 302.050781 C 164.386719 302.050781 165.378906 303.046875 165.378906 304.273438 C 165.378906 305.5 164.386719 306.5 163.160156 306.5 " fill-opacity="1" fill-rule="evenodd"/><path fill="#ffffff" d="M 207.03125 285.582031 L 192.070312 285.582031 C 190.84375 285.582031 189.847656 284.585938 189.847656 283.359375 L 189.847656 269.296875 L 173.03125 269.296875 C 171.804688 269.296875 170.8125 268.300781 170.8125 267.078125 C 170.8125 265.851562 171.804688 264.855469 173.03125 264.855469 L 192.070312 264.855469 C 193.296875 264.855469 194.292969 265.851562 194.292969 267.078125 L 194.292969 281.140625 L 207.03125 281.140625 C 208.257812 281.140625 209.25 282.136719 209.25 283.359375 C 209.25 284.585938 208.257812 285.582031 207.03125 285.582031 " fill-opacity="1" fill-rule="evenodd"/><path fill="#ffffff" d="M 161.535156 282.957031 C 160.308594 282.957031 159.316406 281.960938 159.316406 280.734375 L 159.316406 263.914062 L 145.25 263.914062 C 144.023438 263.914062 143.03125 262.917969 143.03125 261.691406 L 143.03125 246.730469 C 143.03125 245.507812 144.023438 244.511719 145.25 244.511719 C 146.476562 244.511719 147.472656 245.507812 147.472656 246.730469 L 147.472656 259.472656 L 161.535156 259.472656 C 162.761719 259.472656 163.757812 260.46875 163.757812 261.691406 L 163.757812 280.734375 C 163.757812 281.96875 162.761719 282.957031 161.535156 282.957031 " fill-opacity="1" fill-rule="evenodd"/><path fill="#ffffff" d="M 190.9375 326.832031 C 189.710938 326.832031 188.714844 325.839844 188.714844 324.613281 L 188.714844 311.871094 L 174.652344 311.871094 C 173.425781 311.871094 172.429688 310.878906 172.429688 309.652344 L 172.429688 290.605469 C 172.429688 289.378906 173.425781 288.386719 174.652344 288.386719 C 175.875 288.386719 176.871094 289.378906 176.871094 290.605469 L 176.871094 307.429688 L 190.9375 307.429688 C 192.160156 307.429688 193.15625 308.425781 193.15625 309.652344 L 193.15625 324.613281 C 193.15625 325.839844 192.160156 326.832031 190.9375 326.832031 " fill-opacity="1" fill-rule="evenodd"/><g fill="#ffffff" fill-opacity="1"><g transform="translate(330.317739, 231.008884)"><g><path d="M 56.328125 -59.015625 L 56.328125 0 L 41.953125 0 L 41.953125 -24.296875 L 19.59375 -24.296875 L 19.59375 0 L 5.21875 0 L 5.21875 -59.015625 L 19.59375 -59.015625 L 19.59375 -35.890625 L 41.953125 -35.890625 L 41.953125 -59.015625 Z M 56.328125 -59.015625 "/></g></g></g><g fill="#ffffff" fill-opacity="1"><g transform="translate(391.753976, 231.008884)"><g><path d="M 26.5625 0.671875 C 21.96875 0.671875 17.832031 -0.304688 14.15625 -2.265625 C 10.488281 -4.234375 7.601562 -7.035156 5.5 -10.671875 C 3.40625 -14.316406 2.359375 -18.578125 2.359375 -23.453125 C 2.359375 -28.273438 3.421875 -32.519531 5.546875 -36.1875 C 7.679688 -39.851562 10.597656 -42.664062 14.296875 -44.625 C 17.992188 -46.59375 22.140625 -47.578125 26.734375 -47.578125 C 31.328125 -47.578125 35.472656 -46.59375 39.171875 -44.625 C 42.867188 -42.664062 45.78125 -39.851562 47.90625 -36.1875 C 50.039062 -32.519531 51.109375 -28.273438 51.109375 -23.453125 C 51.109375 -18.628906 50.03125 -14.382812 47.875 -10.71875 C 45.71875 -7.050781 42.773438 -4.234375 39.046875 -2.265625 C 35.316406 -0.304688 31.15625 0.671875 26.5625 0.671875 Z M 26.5625 -11.765625 C 29.3125 -11.765625 31.648438 -12.773438 33.578125 -14.796875 C 35.515625 -16.816406 36.484375 -19.703125 36.484375 -23.453125 C 36.484375 -27.203125 35.539062 -30.085938 33.65625 -32.109375 C 31.78125 -34.128906 29.472656 -35.140625 26.734375 -35.140625 C 23.929688 -35.140625 21.601562 -34.144531 19.75 -32.15625 C 17.90625 -30.164062 16.984375 -27.265625 16.984375 -23.453125 C 16.984375 -19.703125 17.890625 -16.816406 19.703125 -14.796875 C 21.523438 -12.773438 23.8125 -11.765625 26.5625 -11.765625 Z M 26.5625 -11.765625 "/></g></g></g><g fill="#ffffff" fill-opacity="1"><g transform="translate(445.290065, 231.008884)"><g><path d="M 65.0625 -47.40625 C 70.894531 -47.40625 75.53125 -45.640625 78.96875 -42.109375 C 82.414062 -38.578125 84.140625 -33.675781 84.140625 -27.40625 L 84.140625 0 L 69.859375 0 L 69.859375 -25.46875 C 69.859375 -28.5 69.054688 -30.835938 67.453125 -32.484375 C 65.859375 -34.140625 63.660156 -34.96875 60.859375 -34.96875 C 58.054688 -34.96875 55.851562 -34.140625 54.25 -32.484375 C 52.65625 -30.835938 51.859375 -28.5 51.859375 -25.46875 L 51.859375 0 L 37.578125 0 L 37.578125 -25.46875 C 37.578125 -28.5 36.773438 -30.835938 35.171875 -32.484375 C 33.578125 -34.140625 31.378906 -34.96875 28.578125 -34.96875 C 25.773438 -34.96875 23.578125 -34.140625 21.984375 -32.484375 C 20.390625 -30.835938 19.59375 -28.5 19.59375 -25.46875 L 19.59375 0 L 5.21875 0 L 5.21875 -46.90625 L 19.59375 -46.90625 L 19.59375 -41.015625 C 21.039062 -42.984375 22.941406 -44.539062 25.296875 -45.6875 C 27.648438 -46.832031 30.3125 -47.40625 33.28125 -47.40625 C 36.8125 -47.40625 39.960938 -46.648438 42.734375 -45.140625 C 45.515625 -43.628906 47.691406 -41.472656 49.265625 -38.671875 C 50.890625 -41.242188 53.101562 -43.34375 55.90625 -44.96875 C 58.707031 -46.59375 61.757812 -47.40625 65.0625 -47.40625 Z M 65.0625 -47.40625 "/></g></g></g><g fill="#ffffff" fill-opacity="1"><g transform="translate(534.292732, 231.008884)"><g><path d="M 49.421875 -24.203125 C 49.421875 -22.859375 49.335938 -21.457031 49.171875 -20 L 16.640625 -20 C 16.867188 -17.09375 17.804688 -14.867188 19.453125 -13.328125 C 21.109375 -11.785156 23.144531 -11.015625 25.5625 -11.015625 C 29.144531 -11.015625 31.632812 -12.523438 33.03125 -15.546875 L 48.34375 -15.546875 C 47.550781 -12.460938 46.128906 -9.6875 44.078125 -7.21875 C 42.035156 -4.757812 39.472656 -2.828125 36.390625 -1.421875 C 33.316406 -0.0234375 29.875 0.671875 26.0625 0.671875 C 21.46875 0.671875 17.375 -0.304688 13.78125 -2.265625 C 10.195312 -4.234375 7.394531 -7.035156 5.375 -10.671875 C 3.363281 -14.316406 2.359375 -18.578125 2.359375 -23.453125 C 2.359375 -28.328125 3.351562 -32.582031 5.34375 -36.21875 C 7.332031 -39.863281 10.117188 -42.664062 13.703125 -44.625 C 17.285156 -46.59375 21.40625 -47.578125 26.0625 -47.578125 C 30.601562 -47.578125 34.632812 -46.625 38.15625 -44.71875 C 41.6875 -42.8125 44.445312 -40.09375 46.4375 -36.5625 C 48.425781 -33.03125 49.421875 -28.910156 49.421875 -24.203125 Z M 34.71875 -28 C 34.71875 -30.457031 33.875 -32.414062 32.1875 -33.875 C 30.507812 -35.332031 28.410156 -36.0625 25.890625 -36.0625 C 23.484375 -36.0625 21.453125 -35.359375 19.796875 -33.953125 C 18.140625 -32.554688 17.117188 -30.570312 16.734375 -28 Z M 34.71875 -28 "/></g></g></g><g fill="#ffffff" fill-opacity="1"><g transform="translate(586.063881, 231.008884)"><g><path d="M 47.25 10.09375 L 39.671875 -0.078125 C 37.429688 0.367188 35.25 0.59375 33.125 0.59375 C 27.570312 0.59375 22.484375 -0.691406 17.859375 -3.265625 C 13.234375 -5.847656 9.5625 -9.453125 6.84375 -14.078125 C 4.132812 -18.703125 2.78125 -23.898438 2.78125 -29.671875 C 2.78125 -35.441406 4.132812 -40.625 6.84375 -45.21875 C 9.5625 -49.820312 13.234375 -53.410156 17.859375 -55.984375 C 22.484375 -58.566406 27.570312 -59.859375 33.125 -59.859375 C 38.664062 -59.859375 43.75 -58.566406 48.375 -55.984375 C 53 -53.410156 56.640625 -49.820312 59.296875 -45.21875 C 61.960938 -40.625 63.296875 -35.441406 63.296875 -29.671875 C 63.296875 -24.628906 62.269531 -20.019531 60.21875 -15.84375 C 58.175781 -11.664062 55.335938 -8.207031 51.703125 -5.46875 L 64.640625 10.09375 Z M 17.484375 -29.671875 C 17.484375 -24.460938 18.894531 -20.300781 21.71875 -17.1875 C 24.550781 -14.082031 28.351562 -12.53125 33.125 -12.53125 C 37.832031 -12.53125 41.597656 -14.097656 44.421875 -17.234375 C 47.253906 -20.367188 48.671875 -24.515625 48.671875 -29.671875 C 48.671875 -34.878906 47.253906 -39.039062 44.421875 -42.15625 C 41.597656 -45.269531 37.832031 -46.828125 33.125 -46.828125 C 28.351562 -46.828125 24.550781 -45.285156 21.71875 -42.203125 C 18.894531 -39.117188 17.484375 -34.941406 17.484375 -29.671875 Z M 17.484375 -29.671875 "/></g></g></g><g fill="#ffffff" fill-opacity="1"><g transform="translate(330.317739, 346.004586)"><g><path d="M 26.5625 0.59375 C 22.25 0.59375 18.378906 -0.101562 14.953125 -1.5 C 11.535156 -2.90625 8.804688 -4.984375 6.765625 -7.734375 C 4.722656 -10.484375 3.644531 -13.789062 3.53125 -17.65625 L 18.828125 -17.65625 C 19.054688 -15.46875 19.8125 -13.796875 21.09375 -12.640625 C 22.382812 -11.492188 24.066406 -10.921875 26.140625 -10.921875 C 28.273438 -10.921875 29.957031 -11.410156 31.1875 -12.390625 C 32.414062 -13.378906 33.03125 -14.738281 33.03125 -16.46875 C 33.03125 -17.925781 32.539062 -19.128906 31.5625 -20.078125 C 30.582031 -21.035156 29.378906 -21.820312 27.953125 -22.4375 C 26.523438 -23.0625 24.492188 -23.765625 21.859375 -24.546875 C 18.046875 -25.722656 14.929688 -26.898438 12.515625 -28.078125 C 10.109375 -29.253906 8.035156 -30.988281 6.296875 -33.28125 C 4.566406 -35.582031 3.703125 -38.582031 3.703125 -42.28125 C 3.703125 -47.769531 5.691406 -52.070312 9.671875 -55.1875 C 13.648438 -58.300781 18.832031 -59.859375 25.21875 -59.859375 C 31.71875 -59.859375 36.957031 -58.300781 40.9375 -55.1875 C 44.914062 -52.070312 47.046875 -47.742188 47.328125 -42.203125 L 31.78125 -42.203125 C 31.664062 -44.109375 30.960938 -45.609375 29.671875 -46.703125 C 28.378906 -47.796875 26.726562 -48.34375 24.71875 -48.34375 C 22.976562 -48.34375 21.578125 -47.878906 20.515625 -46.953125 C 19.453125 -46.023438 18.921875 -44.691406 18.921875 -42.953125 C 18.921875 -41.046875 19.816406 -39.5625 21.609375 -38.5 C 23.398438 -37.4375 26.203125 -36.285156 30.015625 -35.046875 C 33.828125 -33.765625 36.921875 -32.535156 39.296875 -31.359375 C 41.679688 -30.179688 43.738281 -28.46875 45.46875 -26.21875 C 47.207031 -23.976562 48.078125 -21.09375 48.078125 -17.5625 C 48.078125 -14.207031 47.222656 -11.15625 45.515625 -8.40625 C 43.804688 -5.65625 41.328125 -3.46875 38.078125 -1.84375 C 34.828125 -0.21875 30.988281 0.59375 26.5625 0.59375 Z M 26.5625 0.59375 "/></g></g></g><g fill="#ffffff" fill-opacity="1"><g transform="translate(382.004832, 346.004586)"><g><path d="M 53.125 -46.90625 L 23.703125 22.28125 L 8.234375 22.28125 L 19 -1.59375 L -0.078125 -46.90625 L 15.96875 -46.90625 L 26.8125 -17.5625 L 37.578125 -46.90625 Z M 53.125 -46.90625 "/></g></g></g><g fill="#ffffff" fill-opacity="1"><g transform="translate(435.120701, 346.004586)"><g><path d="M 24.296875 0.671875 C 20.203125 0.671875 16.554688 -0.0234375 13.359375 -1.421875 C 10.171875 -2.828125 7.648438 -4.75 5.796875 -7.1875 C 3.953125 -9.625 2.914062 -12.359375 2.6875 -15.390625 L 16.890625 -15.390625 C 17.066406 -13.765625 17.828125 -12.445312 19.171875 -11.4375 C 20.515625 -10.425781 22.164062 -9.921875 24.125 -9.921875 C 25.914062 -9.921875 27.300781 -10.269531 28.28125 -10.96875 C 29.269531 -11.664062 29.765625 -12.578125 29.765625 -13.703125 C 29.765625 -15.046875 29.0625 -16.039062 27.65625 -16.6875 C 26.257812 -17.332031 23.988281 -18.046875 20.84375 -18.828125 C 17.476562 -19.609375 14.675781 -20.429688 12.4375 -21.296875 C 10.195312 -22.171875 8.265625 -23.546875 6.640625 -25.421875 C 5.015625 -27.304688 4.203125 -29.84375 4.203125 -33.03125 C 4.203125 -35.726562 4.941406 -38.179688 6.421875 -40.390625 C 7.910156 -42.609375 10.097656 -44.359375 12.984375 -45.640625 C 15.867188 -46.929688 19.300781 -47.578125 23.28125 -47.578125 C 29.164062 -47.578125 33.800781 -46.117188 37.1875 -43.203125 C 40.582031 -40.296875 42.535156 -36.429688 43.046875 -31.609375 L 29.765625 -31.609375 C 29.535156 -33.234375 28.816406 -34.519531 27.609375 -35.46875 C 26.410156 -36.425781 24.828125 -36.90625 22.859375 -36.90625 C 21.179688 -36.90625 19.894531 -36.582031 19 -35.9375 C 18.101562 -35.289062 17.65625 -34.40625 17.65625 -33.28125 C 17.65625 -31.9375 18.367188 -30.925781 19.796875 -30.25 C 21.222656 -29.582031 23.453125 -28.914062 26.484375 -28.25 C 29.953125 -27.351562 32.78125 -26.46875 34.96875 -25.59375 C 37.15625 -24.726562 39.070312 -23.328125 40.71875 -21.390625 C 42.375 -19.460938 43.234375 -16.875 43.296875 -13.625 C 43.296875 -10.875 42.523438 -8.421875 40.984375 -6.265625 C 39.441406 -4.109375 37.226562 -2.410156 34.34375 -1.171875 C 31.457031 0.0546875 28.109375 0.671875 24.296875 0.671875 Z M 24.296875 0.671875 "/></g></g></g><g fill="#ffffff" fill-opacity="1"><g transform="translate(482.017306, 346.004586)"><g><path d="M 31.359375 -12.1875 L 31.359375 0 L 24.046875 0 C 18.828125 0 14.757812 -1.273438 11.84375 -3.828125 C 8.9375 -6.378906 7.484375 -10.539062 7.484375 -16.3125 L 7.484375 -34.96875 L 1.765625 -34.96875 L 1.765625 -46.90625 L 7.484375 -46.90625 L 7.484375 -58.34375 L 21.859375 -58.34375 L 21.859375 -46.90625 L 31.265625 -46.90625 L 31.265625 -34.96875 L 21.859375 -34.96875 L 21.859375 -16.140625 C 21.859375 -14.734375 22.191406 -13.722656 22.859375 -13.109375 C 23.535156 -12.492188 24.660156 -12.1875 26.234375 -12.1875 Z M 31.359375 -12.1875 "/></g></g></g><g fill="#ffffff" fill-opacity="1"><g transform="translate(516.139222, 346.004586)"><g><path d="M 49.421875 -24.203125 C 49.421875 -22.859375 49.335938 -21.457031 49.171875 -20 L 16.640625 -20 C 16.867188 -17.09375 17.804688 -14.867188 19.453125 -13.328125 C 21.109375 -11.785156 23.144531 -11.015625 25.5625 -11.015625 C 29.144531 -11.015625 31.632812 -12.523438 33.03125 -15.546875 L 48.34375 -15.546875 C 47.550781 -12.460938 46.128906 -9.6875 44.078125 -7.21875 C 42.035156 -4.757812 39.472656 -2.828125 36.390625 -1.421875 C 33.316406 -0.0234375 29.875 0.671875 26.0625 0.671875 C 21.46875 0.671875 17.375 -0.304688 13.78125 -2.265625 C 10.195312 -4.234375 7.394531 -7.035156 5.375 -10.671875 C 3.363281 -14.316406 2.359375 -18.578125 2.359375 -23.453125 C 2.359375 -28.328125 3.351562 -32.582031 5.34375 -36.21875 C 7.332031 -39.863281 10.117188 -42.664062 13.703125 -44.625 C 17.285156 -46.59375 21.40625 -47.578125 26.0625 -47.578125 C 30.601562 -47.578125 34.632812 -46.625 38.15625 -44.71875 C 41.6875 -42.8125 44.445312 -40.09375 46.4375 -36.5625 C 48.425781 -33.03125 49.421875 -28.910156 49.421875 -24.203125 Z M 34.71875 -28 C 34.71875 -30.457031 33.875 -32.414062 32.1875 -33.875 C 30.507812 -35.332031 28.410156 -36.0625 25.890625 -36.0625 C 23.484375 -36.0625 21.453125 -35.359375 19.796875 -33.953125 C 18.140625 -32.554688 17.117188 -30.570312 16.734375 -28 Z M 34.71875 -28 "/></g></g></g><g fill="#ffffff" fill-opacity="1"><g transform="translate(567.91037, 346.004586)"><g><path d="M 65.0625 -47.40625 C 70.894531 -47.40625 75.53125 -45.640625 78.96875 -42.109375 C 82.414062 -38.578125 84.140625 -33.675781 84.140625 -27.40625 L 84.140625 0 L 69.859375 0 L 69.859375 -25.46875 C 69.859375 -28.5 69.054688 -30.835938 67.453125 -32.484375 C 65.859375 -34.140625 63.660156 -34.96875 60.859375 -34.96875 C 58.054688 -34.96875 55.851562 -34.140625 54.25 -32.484375 C 52.65625 -30.835938 51.859375 -28.5 51.859375 -25.46875 L 51.859375 0 L 37.578125 0 L 37.578125 -25.46875 C 37.578125 -28.5 36.773438 -30.835938 35.171875 -32.484375 C 33.578125 -34.140625 31.378906 -34.96875 28.578125 -34.96875 C 25.773438 -34.96875 23.578125 -34.140625 21.984375 -32.484375 C 20.390625 -30.835938 19.59375 -28.5 19.59375 -25.46875 L 19.59375 0 L 5.21875 0 L 5.21875 -46.90625 L 19.59375 -46.90625 L 19.59375 -41.015625 C 21.039062 -42.984375 22.941406 -44.539062 25.296875 -45.6875 C 27.648438 -46.832031 30.3125 -47.40625 33.28125 -47.40625 C 36.8125 -47.40625 39.960938 -46.648438 42.734375 -45.140625 C 45.515625 -43.628906 47.691406 -41.472656 49.265625 -38.671875 C 50.890625 -41.242188 53.101562 -43.34375 55.90625 -44.96875 C 58.707031 -46.59375 61.757812 -47.40625 65.0625 -47.40625 Z M 65.0625 -47.40625 "/></g></g></g><g fill="#ffffff" fill-opacity="1"><g transform="translate(656.913038, 346.004586)"><g><path d="M 24.296875 0.671875 C 20.203125 0.671875 16.554688 -0.0234375 13.359375 -1.421875 C 10.171875 -2.828125 7.648438 -4.75 5.796875 -7.1875 C 3.953125 -9.625 2.914062 -12.359375 2.6875 -15.390625 L 16.890625 -15.390625 C 17.066406 -13.765625 17.828125 -12.445312 19.171875 -11.4375 C 20.515625 -10.425781 22.164062 -9.921875 24.125 -9.921875 C 25.914062 -9.921875 27.300781 -10.269531 28.28125 -10.96875 C 29.269531 -11.664062 29.765625 -12.578125 29.765625 -13.703125 C 29.765625 -15.046875 29.0625 -16.039062 27.65625 -16.6875 C 26.257812 -17.332031 23.988281 -18.046875 20.84375 -18.828125 C 17.476562 -19.609375 14.675781 -20.429688 12.4375 -21.296875 C 10.195312 -22.171875 8.265625 -23.546875 6.640625 -25.421875 C 5.015625 -27.304688 4.203125 -29.84375 4.203125 -33.03125 C 4.203125 -35.726562 4.941406 -38.179688 6.421875 -40.390625 C 7.910156 -42.609375 10.097656 -44.359375 12.984375 -45.640625 C 15.867188 -46.929688 19.300781 -47.578125 23.28125 -47.578125 C 29.164062 -47.578125 33.800781 -46.117188 37.1875 -43.203125 C 40.582031 -40.296875 42.535156 -36.429688 43.046875 -31.609375 L 29.765625 -31.609375 C 29.535156 -33.234375 28.816406 -34.519531 27.609375 -35.46875 C 26.410156 -36.425781 24.828125 -36.90625 22.859375 -36.90625 C 21.179688 -36.90625 19.894531 -36.582031 19 -35.9375 C 18.101562 -35.289062 17.65625 -34.40625 17.65625 -33.28125 C 17.65625 -31.9375 18.367188 -30.925781 19.796875 -30.25 C 21.222656 -29.582031 23.453125 -28.914062 26.484375 -28.25 C 29.953125 -27.351562 32.78125 -26.46875 34.96875 -25.59375 C 37.15625 -24.726562 39.070312 -23.328125 40.71875 -21.390625 C 42.375 -19.460938 43.234375 -16.875 43.296875 -13.625 C 43.296875 -10.875 42.523438 -8.421875 40.984375 -6.265625 C 39.441406 -4.109375 37.226562 -2.410156 34.34375 -1.171875 C 31.457031 0.0546875 28.109375 0.671875 24.296875 0.671875 Z M 24.296875 0.671875 "/></g></g></g><g fill="#ffffff" fill-opacity="1"><g transform="translate(703.809643, 346.004586)"><g/></g></g><g fill="#ffffff" fill-opacity="1"><g transform="translate(721.626988, 346.004586)"><g><path d="M 2.78125 -29.59375 C 2.78125 -35.414062 4.039062 -40.609375 6.5625 -45.171875 C 9.082031 -49.742188 12.597656 -53.304688 17.109375 -55.859375 C 21.617188 -58.410156 26.734375 -59.6875 32.453125 -59.6875 C 39.453125 -59.6875 45.445312 -57.835938 50.4375 -54.140625 C 55.425781 -50.441406 58.757812 -45.394531 60.4375 -39 L 44.640625 -39 C 43.460938 -41.46875 41.796875 -43.347656 39.640625 -44.640625 C 37.484375 -45.929688 35.03125 -46.578125 32.28125 -46.578125 C 27.851562 -46.578125 24.265625 -45.035156 21.515625 -41.953125 C 18.773438 -38.867188 17.40625 -34.75 17.40625 -29.59375 C 17.40625 -24.4375 18.773438 -20.316406 21.515625 -17.234375 C 24.265625 -14.148438 27.851562 -12.609375 32.28125 -12.609375 C 35.03125 -12.609375 37.484375 -13.25 39.640625 -14.53125 C 41.796875 -15.820312 43.460938 -17.703125 44.640625 -20.171875 L 60.4375 -20.171875 C 58.757812 -13.785156 55.425781 -8.753906 50.4375 -5.078125 C 45.445312 -1.410156 39.453125 0.421875 32.453125 0.421875 C 26.734375 0.421875 21.617188 -0.851562 17.109375 -3.40625 C 12.597656 -5.957031 9.082031 -9.5 6.5625 -14.03125 C 4.039062 -18.570312 2.78125 -23.757812 2.78125 -29.59375 Z M 2.78125 -29.59375 "/></g></g></g><g fill="#ffffff" fill-opacity="1"><g transform="translate(785.668551, 346.004586)"><g><path d="M 26.5625 0.671875 C 21.96875 0.671875 17.832031 -0.304688 14.15625 -2.265625 C 10.488281 -4.234375 7.601562 -7.035156 5.5 -10.671875 C 3.40625 -14.316406 2.359375 -18.578125 2.359375 -23.453125 C 2.359375 -28.273438 3.421875 -32.519531 5.546875 -36.1875 C 7.679688 -39.851562 10.597656 -42.664062 14.296875 -44.625 C 17.992188 -46.59375 22.140625 -47.578125 26.734375 -47.578125 C 31.328125 -47.578125 35.472656 -46.59375 39.171875 -44.625 C 42.867188 -42.664062 45.78125 -39.851562 47.90625 -36.1875 C 50.039062 -32.519531 51.109375 -28.273438 51.109375 -23.453125 C 51.109375 -18.628906 50.03125 -14.382812 47.875 -10.71875 C 45.71875 -7.050781 42.773438 -4.234375 39.046875 -2.265625 C 35.316406 -0.304688 31.15625 0.671875 26.5625 0.671875 Z M 26.5625 -11.765625 C 29.3125 -11.765625 31.648438 -12.773438 33.578125 -14.796875 C 35.515625 -16.816406 36.484375 -19.703125 36.484375 -23.453125 C 36.484375 -27.203125 35.539062 -30.085938 33.65625 -32.109375 C 31.78125 -34.128906 29.472656 -35.140625 26.734375 -35.140625 C 23.929688 -35.140625 21.601562 -34.144531 19.75 -32.15625 C 17.90625 -30.164062 16.984375 -27.265625 16.984375 -23.453125 C 16.984375 -19.703125 17.890625 -16.816406 19.703125 -14.796875 C 21.523438 -12.773438 23.8125 -11.765625 26.5625 -11.765625 Z M 26.5625 -11.765625 "/></g></g></g><g fill="#ffffff" fill-opacity="1"><g transform="translate(839.20464, 346.004586)"><g><path d="M 11.9375 0.671875 C 9.414062 0.671875 7.351562 -0.0664062 5.75 -1.546875 C 4.15625 -3.035156 3.359375 -4.875 3.359375 -7.0625 C 3.359375 -9.300781 4.15625 -11.175781 5.75 -12.6875 C 7.351562 -14.207031 9.414062 -14.96875 11.9375 -14.96875 C 14.40625 -14.96875 16.4375 -14.207031 18.03125 -12.6875 C 19.625 -11.175781 20.421875 -9.300781 20.421875 -7.0625 C 20.421875 -4.875 19.625 -3.035156 18.03125 -1.546875 C 16.4375 -0.0664062 14.40625 0.671875 11.9375 0.671875 Z M 11.9375 0.671875 "/></g></g></g></svg>